<svg width="25" height="25" viewBox="0 0 25 25" fill="none" xmlns="http://www.w3.org/2000/svg">
<g id="calendar_month">
<mask id="mask0_2010_1167" style="mask-type:alpha" maskUnits="userSpaceOnUse" x="0" y="0" width="25" height="25">
<rect id="Bounding box" width="25" height="25" fill="#D9D9D9"/>
</mask>
<g mask="url(#mask0_2010_1167)">
<path id="calendar_month_2" d="M5.20833 22.9163C4.63542 22.9163 4.14497 22.7124 3.73698 22.3044C3.32899 21.8964 3.125 21.4059 3.125 20.833V6.24967C3.125 5.67676 3.32899 5.18631 3.73698 4.77832C4.14497 4.37033 4.63542 4.16634 5.20833 4.16634H6.25V2.08301H8.33333V4.16634H16.6667V2.08301H18.75V4.16634H19.7917C20.3646 4.16634 20.855 4.37033 21.263 4.77832C21.671 5.18631 21.875 5.67676 21.875 6.24967V20.833C21.875 21.4059 21.671 21.8964 21.263 22.3044C20.855 22.7124 20.3646 22.9163 19.7917 22.9163H5.20833ZM5.20833 20.833H19.7917V10.4163H5.20833V20.833ZM5.20833 8.33301H19.7917V6.24967H5.20833V8.33301ZM12.5 14.583C12.2049 14.583 11.9575 14.4832 11.7578 14.2835C11.5582 14.0839 11.4583 13.8365 11.4583 13.5413C11.4583 13.2462 11.5582 12.9988 11.7578 12.7992C11.9575 12.5995 12.2049 12.4997 12.5 12.4997C12.7951 12.4997 13.0425 12.5995 13.2422 12.7992C13.4418 12.9988 13.5417 13.2462 13.5417 13.5413C13.5417 13.8365 13.4418 14.0839 13.2422 14.2835C13.0425 14.4832 12.7951 14.583 12.5 14.583ZM8.33333 14.583C8.03819 14.583 7.7908 14.4832 7.59115 14.2835C7.39149 14.0839 7.29167 13.8365 7.29167 13.5413C7.29167 13.2462 7.39149 12.9988 7.59115 12.7992C7.7908 12.5995 8.03819 12.4997 8.33333 12.4997C8.62847 12.4997 8.87587 12.5995 9.07552 12.7992C9.27517 12.9988 9.375 13.2462 9.375 13.5413C9.375 13.8365 9.27517 14.0839 9.07552 14.2835C8.87587 14.4832 8.62847 14.583 8.33333 14.583ZM16.6667 14.583C16.3715 14.583 16.1241 14.4832 15.9245 14.2835C15.7248 14.0839 15.625 13.8365 15.625 13.5413C15.625 13.2462 15.7248 12.9988 15.9245 12.7992C16.1241 12.5995 16.3715 12.4997 16.6667 12.4997C16.9618 12.4997 17.2092 12.5995 17.4089 12.7992C17.6085 12.9988 17.7083 13.2462 17.7083 13.5413C17.7083 13.8365 17.6085 14.0839 17.4089 14.2835C17.2092 14.4832 16.9618 14.583 16.6667 14.583ZM12.5 18.7497C12.2049 18.7497 11.9575 18.6499 11.7578 18.4502C11.5582 18.2505 11.4583 18.0031 11.4583 17.708C11.4583 17.4129 11.5582 17.1655 11.7578 16.9658C11.9575 16.7662 12.2049 16.6663 12.5 16.6663C12.7951 16.6663 13.0425 16.7662 13.2422 16.9658C13.4418 17.1655 13.5417 17.4129 13.5417 17.708C13.5417 18.0031 13.4418 18.2505 13.2422 18.4502C13.0425 18.6499 12.7951 18.7497 12.5 18.7497ZM8.33333 18.7497C8.03819 18.7497 7.7908 18.6499 7.59115 18.4502C7.39149 18.2505 7.29167 18.0031 7.29167 17.708C7.29167 17.4129 7.39149 17.1655 7.59115 16.9658C7.7908 16.7662 8.03819 16.6663 8.33333 16.6663C8.62847 16.6663 8.87587 16.7662 9.07552 16.9658C9.27517 17.1655 9.375 17.4129 9.375 17.708C9.375 18.0031 9.27517 18.2505 9.07552 18.4502C8.87587 18.6499 8.62847 18.7497 8.33333 18.7497ZM16.6667 18.7497C16.3715 18.7497 16.1241 18.6499 15.9245 18.4502C15.7248 18.2505 15.625 18.0031 15.625 17.708C15.625 17.4129 15.7248 17.1655 15.9245 16.9658C16.1241 16.7662 16.3715 16.6663 16.6667 16.6663C16.9618 16.6663 17.2092 16.7662 17.4089 16.9658C17.6085 17.1655 17.7083 17.4129 17.7083 17.708C17.7083 18.0031 17.6085 18.2505 17.4089 18.4502C17.2092 18.6499 16.9618 18.7497 16.6667 18.7497Z" fill="white"/>
</g>
</g>
</svg>
