<svg width="24" height="24" viewBox="0 0 24 24" fill="none" xmlns="http://www.w3.org/2000/svg">
<g id="distance">
<mask id="mask0_2010_1173" style="mask-type:alpha" maskUnits="userSpaceOnUse" x="0" y="0" width="24" height="24">
<rect id="Bounding box" width="24" height="24" fill="#D9D9D9"/>
</mask>
<g mask="url(#mask0_2010_1173)">
<path id="distance_2" d="M12 22C10.2333 22 8.79167 21.7208 7.675 21.1625C6.55833 20.6042 6 19.8833 6 19C6 18.6 6.12083 18.2292 6.3625 17.8875C6.60417 17.5458 6.94167 17.25 7.375 17L8.95 18.475C8.8 18.5417 8.6375 18.6167 8.4625 18.7C8.2875 18.7833 8.15 18.8833 8.05 19C8.26667 19.2667 8.76667 19.5 9.55 19.7C10.3333 19.9 11.15 20 12 20C12.85 20 13.6708 19.9 14.4625 19.7C15.2542 19.5 15.7583 19.2667 15.975 19C15.8583 18.8667 15.7083 18.7583 15.525 18.675C15.3417 18.5917 15.1667 18.5167 15 18.45L16.55 16.95C17.0167 17.2167 17.375 17.5208 17.625 17.8625C17.875 18.2042 18 18.5833 18 19C18 19.8833 17.4417 20.6042 16.325 21.1625C15.2083 21.7208 13.7667 22 12 22ZM12.025 16.5C13.675 15.2833 14.9167 14.0625 15.75 12.8375C16.5833 11.6125 17 10.3833 17 9.15C17 7.45 16.4583 6.16667 15.375 5.3C14.2917 4.43333 13.1667 4 12 4C10.8333 4 9.70833 4.43333 8.625 5.3C7.54167 6.16667 7 7.45 7 9.15C7 10.2667 7.40833 11.4292 8.225 12.6375C9.04167 13.8458 10.3083 15.1333 12.025 16.5ZM12 19C9.65 17.2667 7.89583 15.5833 6.7375 13.95C5.57917 12.3167 5 10.7167 5 9.15C5 7.96667 5.2125 6.92917 5.6375 6.0375C6.0625 5.14583 6.60833 4.4 7.275 3.8C7.94167 3.2 8.69167 2.75 9.525 2.45C10.3583 2.15 11.1833 2 12 2C12.8167 2 13.6417 2.15 14.475 2.45C15.3083 2.75 16.0583 3.2 16.725 3.8C17.3917 4.4 17.9375 5.14583 18.3625 6.0375C18.7875 6.92917 19 7.96667 19 9.15C19 10.7167 18.4208 12.3167 17.2625 13.95C16.1042 15.5833 14.35 17.2667 12 19ZM12 11C12.55 11 13.0208 10.8042 13.4125 10.4125C13.8042 10.0208 14 9.55 14 9C14 8.45 13.8042 7.97917 13.4125 7.5875C13.0208 7.19583 12.55 7 12 7C11.45 7 10.9792 7.19583 10.5875 7.5875C10.1958 7.97917 10 8.45 10 9C10 9.55 10.1958 10.0208 10.5875 10.4125C10.9792 10.8042 11.45 11 12 11Z" fill="white"/>
</g>
</g>
</svg>
