<svg width="14" height="15" viewBox="0 0 14 15" fill="none" xmlns="http://www.w3.org/2000/svg">
<g id="mdi:eye">
<path id="Vector" d="M7.00016 5.75C6.53603 5.75 6.09091 5.93437 5.76273 6.26256C5.43454 6.59075 5.25016 7.03587 5.25016 7.5C5.25016 7.96413 5.43454 8.40925 5.76273 8.73744C6.09091 9.06563 6.53603 9.25 7.00016 9.25C7.46429 9.25 7.90941 9.06563 8.2376 8.73744C8.56579 8.40925 8.75016 7.96413 8.75016 7.5C8.75016 7.03587 8.56579 6.59075 8.2376 6.26256C7.90941 5.93437 7.46429 5.75 7.00016 5.75ZM7.00016 10.4167C6.22661 10.4167 5.48475 10.1094 4.93777 9.56239C4.39079 9.01541 4.0835 8.27355 4.0835 7.5C4.0835 6.72645 4.39079 5.98459 4.93777 5.43761C5.48475 4.89062 6.22661 4.58333 7.00016 4.58333C7.77371 4.58333 8.51558 4.89062 9.06256 5.43761C9.60954 5.98459 9.91683 6.72645 9.91683 7.5C9.91683 8.27355 9.60954 9.01541 9.06256 9.56239C8.51558 10.1094 7.77371 10.4167 7.00016 10.4167ZM7.00016 3.125C4.0835 3.125 1.59266 4.93917 0.583496 7.5C1.59266 10.0608 4.0835 11.875 7.00016 11.875C9.91683 11.875 12.4077 10.0608 13.4168 7.5C12.4077 4.93917 9.91683 3.125 7.00016 3.125Z" fill="#C1C1C1"/>
</g>
</svg>
