<svg width="24" height="24" viewBox="0 0 24 24" fill="none" xmlns="http://www.w3.org/2000/svg">
<g id="search">
<mask id="mask0_2010_1080" style="mask-type:alpha" maskUnits="userSpaceOnUse" x="0" y="0" width="24" height="24">
<rect id="Bounding box" width="24" height="24" fill="#D9D9D9"/>
</mask>
<g mask="url(#mask0_2010_1080)">
<path id="search_2" d="M21.4444 23L14.4444 16C13.8889 16.4444 13.25 16.7963 12.5278 17.0556C11.8056 17.3148 11.037 17.4444 10.2222 17.4444C8.2037 17.4444 6.49537 16.7454 5.09722 15.3472C3.69907 13.9491 3 12.2407 3 10.2222C3 8.2037 3.69907 6.49537 5.09722 5.09722C6.49537 3.69907 8.2037 3 10.2222 3C12.2407 3 13.9491 3.69907 15.3472 5.09722C16.7454 6.49537 17.4444 8.2037 17.4444 10.2222C17.4444 11.037 17.3148 11.8056 17.0556 12.5278C16.7963 13.25 16.4444 13.8889 16 14.4444L23 21.4444L21.4444 23ZM10.2222 15.2222C11.6111 15.2222 12.7917 14.7361 13.7639 13.7639C14.7361 12.7917 15.2222 11.6111 15.2222 10.2222C15.2222 8.83333 14.7361 7.65278 13.7639 6.68056C12.7917 5.70833 11.6111 5.22222 10.2222 5.22222C8.83333 5.22222 7.65278 5.70833 6.68056 6.68056C5.70833 7.65278 5.22222 8.83333 5.22222 10.2222C5.22222 11.6111 5.70833 12.7917 6.68056 13.7639C7.65278 14.7361 8.83333 15.2222 10.2222 15.2222Z" fill="#1C1B1F"/>
</g>
</g>
</svg>
